<svg width="115" height="48" viewBox="0 0 115 48" fill="none" xmlns="http://www.w3.org/2000/svg">
<path d="M13.404 29.6369V41.468H11.8482V32.646L7.91588 41.468H6.82167L2.87228 32.6289V41.468H1.31646V29.6369H2.99196L7.36878 39.4164L11.7456 29.6369H13.404ZM20.1287 41.6219C19.2511 41.6219 18.4532 41.4224 17.7351 41.0235C17.0285 40.6246 16.47 40.0604 16.0596 39.3309C15.6607 38.59 15.4612 37.7352 15.4612 36.7664C15.4612 35.8089 15.6664 34.9655 16.0767 34.236C16.4984 33.4951 17.0683 32.931 17.7864 32.5434C18.5045 32.1445 19.308 31.945 20.1971 31.945C21.0861 31.945 21.8897 32.1445 22.6077 32.5434C23.3258 32.931 23.89 33.4895 24.3003 34.2189C24.7221 34.9484 24.9329 35.7975 24.9329 36.7664C24.9329 37.7352 24.7164 38.59 24.2832 39.3309C23.8615 40.0604 23.2859 40.6246 22.5565 41.0235C21.827 41.4224 21.0177 41.6219 20.1287 41.6219ZM20.1287 40.2541C20.6872 40.2541 21.2115 40.1231 21.7016 39.8609C22.1917 39.5988 22.585 39.2055 22.8813 38.6812C23.189 38.1569 23.3429 37.5186 23.3429 36.7664C23.3429 36.0141 23.1947 35.3758 22.8984 34.8515C22.602 34.3272 22.2145 33.9397 21.7358 33.6889C21.2571 33.4268 20.7385 33.2957 20.18 33.2957C19.6101 33.2957 19.0858 33.4268 18.6071 33.6889C18.1398 33.9397 17.7636 34.3272 17.4787 34.8515C17.1937 35.3758 17.0512 36.0141 17.0512 36.7664C17.0512 37.53 17.188 38.174 17.4616 38.6983C17.7465 39.2226 18.1227 39.6159 18.59 39.878C19.0573 40.1288 19.5702 40.2541 20.1287 40.2541ZM31.5434 31.9279C32.6832 31.9279 33.6065 32.2756 34.3131 32.9708C35.0198 33.6547 35.3731 34.6463 35.3731 35.9457V41.468H33.8344V36.168C33.8344 35.2333 33.6008 34.521 33.1334 34.0309C32.6661 33.5293 32.0278 33.2786 31.2186 33.2786C30.3979 33.2786 29.7426 33.535 29.2524 34.048C28.7737 34.5609 28.5344 35.3074 28.5344 36.2876V41.468H26.9786V32.0989H28.5344V33.4325C28.8421 32.9537 29.2581 32.5833 29.7824 32.3212C30.3182 32.059 30.9051 31.9279 31.5434 31.9279ZM46.463 36.4244C46.463 36.7208 46.4459 37.0342 46.4117 37.3648H38.9233C38.9803 38.288 39.2937 39.0118 39.8636 39.5361C40.4449 40.049 41.1459 40.3054 41.9665 40.3054C42.639 40.3054 43.1975 40.1516 43.642 39.8438C44.098 39.5247 44.4171 39.1029 44.5995 38.5786H46.275C46.0242 39.4791 45.5227 40.2142 44.7704 40.7841C44.0182 41.3426 43.0835 41.6219 41.9665 41.6219C41.0775 41.6219 40.2796 41.4224 39.573 41.0235C38.8777 40.6246 38.3306 40.0604 37.9317 39.3309C37.5327 38.59 37.3333 37.7352 37.3333 36.7664C37.3333 35.7975 37.527 34.9484 37.9146 34.2189C38.3021 33.4895 38.8435 32.931 39.5388 32.5434C40.2455 32.1445 41.0547 31.945 41.9665 31.945C42.8556 31.945 43.642 32.1388 44.3259 32.5263C45.0098 32.9139 45.5341 33.4496 45.8988 34.1334C46.275 34.8059 46.463 35.5696 46.463 36.4244ZM44.8559 36.0996C44.8559 35.5069 44.7248 34.9997 44.4627 34.578C44.2005 34.1448 43.8415 33.82 43.3856 33.6034C42.9411 33.3755 42.4453 33.2615 41.8982 33.2615C41.1117 33.2615 40.4392 33.5122 39.8807 34.0138C39.3336 34.5153 39.0202 35.2105 38.9404 36.0996H44.8559ZM56.5864 32.0989L50.9444 45.879H49.3373L51.1838 41.3654L47.4054 32.0989H49.1322L52.0728 39.6899L54.9793 32.0989H56.5864ZM71.7356 33.005C71.4051 32.3098 70.9264 31.7741 70.2995 31.3979C69.6726 31.0104 68.9431 30.8166 68.1111 30.8166C67.279 30.8166 66.5268 31.0104 65.8543 31.3979C65.1932 31.7741 64.6689 32.3212 64.2814 33.0392C63.9052 33.7459 63.7172 34.5666 63.7172 35.5012C63.7172 36.4358 63.9052 37.2565 64.2814 37.9631C64.6689 38.6698 65.1932 39.2169 65.8543 39.6045C66.5268 39.9806 67.279 40.1687 68.1111 40.1687C69.2737 40.1687 70.2311 39.821 70.9834 39.1257C71.7356 38.4305 72.1745 37.4901 72.2998 36.3047H67.5469V35.0396H73.9582V36.2364C73.8671 37.2166 73.5593 38.117 73.035 38.9377C72.5107 39.7469 71.8211 40.3909 70.9663 40.8696C70.1114 41.3369 69.1597 41.5706 68.1111 41.5706C67.0055 41.5706 65.9968 41.3141 65.0849 40.8012C64.1731 40.2769 63.4493 39.5532 62.9136 38.6299C62.3893 37.7067 62.1272 36.6638 62.1272 35.5012C62.1272 34.3386 62.3893 33.2957 62.9136 32.3725C63.4493 31.4378 64.1731 30.714 65.0849 30.2011C65.9968 29.6768 67.0055 29.4147 68.1111 29.4147C69.3763 29.4147 70.4933 29.7281 71.4621 30.355C72.4423 30.9819 73.1547 31.8652 73.5992 33.005H71.7356ZM84.3245 32.0989V41.468H82.7686V40.0832C82.4723 40.5619 82.0563 40.938 81.5206 41.2116C80.9963 41.4737 80.415 41.6048 79.7767 41.6048C79.0472 41.6048 78.3918 41.4566 77.8105 41.1603C77.2292 40.8525 76.7676 40.3966 76.4257 39.7925C76.0951 39.1884 75.9299 38.4533 75.9299 37.587V32.0989H77.4686V37.3819C77.4686 38.3051 77.7022 39.0175 78.1696 39.519C78.6369 40.0091 79.2752 40.2541 80.0844 40.2541C80.9165 40.2541 81.5718 39.9977 82.0506 39.4848C82.5293 38.9719 82.7686 38.2253 82.7686 37.2451V32.0989H84.3245ZM86.3701 36.7493C86.3701 35.7918 86.5638 34.9541 86.9514 34.236C87.3389 33.5065 87.8689 32.9423 88.5414 32.5434C89.2253 32.1445 89.9832 31.945 90.8153 31.945C91.6359 31.945 92.3483 32.1217 92.9524 32.475C93.5565 32.8284 94.0067 33.2729 94.303 33.8086V32.0989H95.876V41.468H94.303V39.7241C93.9953 40.2712 93.5337 40.7272 92.9182 41.0919C92.3141 41.4452 91.6074 41.6219 90.7982 41.6219C89.9661 41.6219 89.2139 41.4167 88.5414 41.0064C87.8689 40.5961 87.3389 40.0205 86.9514 39.2796C86.5638 38.5387 86.3701 37.6953 86.3701 36.7493ZM94.303 36.7664C94.303 36.0597 94.1606 35.4442 93.8756 34.9199C93.5907 34.3956 93.2031 33.9967 92.713 33.7231C92.2343 33.4382 91.7043 33.2957 91.123 33.2957C90.5417 33.2957 90.0117 33.4325 89.533 33.706C89.0543 33.9796 88.6725 34.3785 88.3875 34.9028C88.1026 35.4271 87.9601 36.0426 87.9601 36.7493C87.9601 37.4673 88.1026 38.0942 88.3875 38.6299C88.6725 39.1542 89.0543 39.5589 89.533 39.8438C90.0117 40.1174 90.5417 40.2541 91.123 40.2541C91.7043 40.2541 92.2343 40.1174 92.713 39.8438C93.2031 39.5589 93.5907 39.1542 93.8756 38.6299C94.1606 38.0942 94.303 37.473 94.303 36.7664ZM100.061 33.6205C100.335 33.0848 100.722 32.6688 101.224 32.3725C101.736 32.0761 102.358 31.9279 103.087 31.9279V33.535H102.677C100.933 33.535 100.061 34.4811 100.061 36.3731V41.468H98.5052V32.0989H100.061V33.6205ZM104.302 36.7493C104.302 35.7918 104.496 34.9541 104.883 34.236C105.271 33.5065 105.801 32.9423 106.473 32.5434C107.157 32.1445 107.921 31.945 108.764 31.945C109.494 31.945 110.172 32.116 110.799 32.4579C111.426 32.7885 111.904 33.2273 112.235 33.7744V28.8163H113.808V41.468H112.235V39.707C111.927 40.2655 111.471 40.7272 110.867 41.0919C110.263 41.4452 109.556 41.6219 108.747 41.6219C107.915 41.6219 107.157 41.4167 106.473 41.0064C105.801 40.5961 105.271 40.0205 104.883 39.2796C104.496 38.5387 104.302 37.6953 104.302 36.7493ZM112.235 36.7664C112.235 36.0597 112.092 35.4442 111.807 34.9199C111.522 34.3956 111.135 33.9967 110.645 33.7231C110.166 33.4382 109.636 33.2957 109.055 33.2957C108.473 33.2957 107.943 33.4325 107.465 33.706C106.986 33.9796 106.604 34.3785 106.319 34.9028C106.034 35.4271 105.892 36.0426 105.892 36.7493C105.892 37.4673 106.034 38.0942 106.319 38.6299C106.604 39.1542 106.986 39.5589 107.465 39.8438C107.943 40.1174 108.473 40.2541 109.055 40.2541C109.636 40.2541 110.166 40.1174 110.645 39.8438C111.135 39.5589 111.522 39.1542 111.807 38.6299C112.092 38.0942 112.235 37.473 112.235 36.7664Z" fill="#FBFBFB"/>
<g clip-path="url(#clip0_17_996)">
<path fill-rule="evenodd" clip-rule="evenodd" d="M62.0686 3.08869C60.4052 2.69093 58.7419 1.89542 57.4944 0.702148C56.2469 1.89542 54.5835 2.69093 52.9202 3.08869C53.336 6.6685 54.5835 9.05504 57.4944 11.0438C60.4052 9.05504 62.0686 6.6685 62.0686 3.08869Z" fill="#FFB627"/>
<path fill-rule="evenodd" clip-rule="evenodd" d="M60.4051 17.8989L48.7617 4.77295V11.1371L57.9101 21.081L60.4051 17.8989Z" fill="#FBFBFB"/>
<path fill-rule="evenodd" clip-rule="evenodd" d="M61.653 16.7058L66.6431 11.1372V5.1709L58.7422 13.9215L61.653 16.7058Z" fill="#FBFBFB"/>
<path fill-rule="evenodd" clip-rule="evenodd" d="M62.0688 18.6945V22.2743L66.643 17.1035V13.5237L62.0688 18.6945Z" fill="#FBFBFB"/>
<path fill-rule="evenodd" clip-rule="evenodd" d="M53.3359 18.6945L48.7617 13.5237V17.1035L53.3359 22.2743V18.6945Z" fill="#FBFBFB"/>
</g>
<defs>
<clipPath id="clip0_17_996">
<rect width="23.4894" height="22.4681" fill="white" transform="translate(45.9575)"/>
</clipPath>
</defs>
</svg>
